<?xml version="1.0" encoding="UTF-8"?><svg id="Capa_1" xmlns="http://www.w3.org/2000/svg" viewBox="0 0 139.93 73.68"><defs><style>.cls-1{fill:#dc7f37;}.cls-2{fill:#960e53;}</style></defs><polygon class="cls-2" points="86.12 10.53 86.12 21.05 75.35 21.05 75.35 10.53 64.59 10.53 64.59 0 75.37 0 75.37 10.53 86.12 10.53"/><polygon class="cls-2" points="107.65 31.58 107.65 42.11 118.4 42.11 118.4 52.63 129.18 52.63 129.18 63.15 139.93 63.15 139.93 73.68 129.17 73.68 129.17 63.15 118.4 63.15 118.4 52.65 107.64 52.65 107.64 42.12 96.88 42.12 96.88 31.59 86.12 31.59 86.12 21.06 96.88 21.06 96.88 31.58 107.65 31.58"/><rect class="cls-1" x="53.82" y="10.52" width="10.76" height="10.53"/><rect class="cls-1" x="43.04" y="21.05" width="10.77" height="10.53"/><polygon class="cls-1" points="32.29 42.12 32.29 52.63 21.53 52.63 21.53 42.1 32.29 42.1 32.29 31.58 43.04 31.58 43.04 42.12 32.29 42.12"/><polygon class="cls-1" points="10.76 63.15 10.76 73.68 0 73.68 0 63.15 10.76 63.15 10.76 52.62 21.51 52.62 21.51 63.15 10.76 63.15"/></svg>