<?xml version="1.0" encoding="iso-8859-1"?>
<!-- Generator: Adobe Illustrator 19.0.0, SVG Export Plug-In . SVG Version: 6.00 Build 0)  -->
<svg version="1.1" id="Capa_1" xmlns="http://www.w3.org/2000/svg" xmlns:xlink="http://www.w3.org/1999/xlink" x="0px" y="0px"
	 viewBox="0 0 512 512" style="enable-background:new 0 0 512 512;" xml:space="preserve">
<g>
	<g>
		<path d="M250.715,394.665c-5.286,5.284-0.377,14.129,6.772,12.662c3.7-0.784,6.031-3.945,6.031-7.352
			C263.518,393.303,255.404,389.974,250.715,394.665z"/>
	</g>
</g>
<g>
	<g>
		<path d="M257.487,417.62c-9.704-1.896-12.612,12.704-2.931,14.714c2.471,0.518,5.134-0.372,6.762-2.05
			C265.457,426.147,263.52,418.911,257.487,417.62z"/>
	</g>
</g>
<g>
	<g>
		<path d="M262.248,445.817c-3.652-5.557-12.368-3.797-13.583,2.701c-1.351,6.474,5.986,11.423,11.513,7.702
			C263.669,453.912,264.53,449.157,262.248,445.817z"/>
	</g>
</g>
<g>
	<g>
		<path d="M263.368,473.523c-0.09-0.48-11.578-8.135-14.273-1.4c-3.464,8.209,8.043,14.526,13.164,7.032
			C263.432,477.369,263.743,475.312,263.368,473.523z"/>
	</g>
</g>
<g>
	<g>
		<path d="M327.413,417.477h-36.342c-4.144,0-7.502,3.358-7.502,7.502c0,4.144,3.358,7.502,7.502,7.502h36.342
			c4.144,0,7.502-3.358,7.502-7.502C334.914,420.835,331.557,417.477,327.413,417.477z"/>
	</g>
</g>
<g>
	<g>
		<path d="M440.139,476.987c-0.02-0.139-0.043-0.277-0.07-0.415l-8.13-40.832c-0.81-4.064-4.759-6.703-8.822-5.892
			c-4.064,0.81-6.702,4.759-5.892,8.822l8.086,40.614c1.704,12.669-3.833,17.712-15.584,17.712h-37.754v-82.02
			c0-4.144-3.358-7.502-7.502-7.502c-4.144,0-7.502,3.358-7.502,7.502v82.02h-30.223c-4.144,0-7.502,3.358-7.502,7.502
			s3.358,7.502,7.502,7.502h82.982C431.986,512,443.063,497.615,440.139,476.987z"/>
	</g>
</g>
<g>
	<g>
		<path d="M425.094,401.364c-6.536-32.682-6.778-58.827-37.24-71.52c-4.132-1.684-3.543-1.154-8.043-2.61l-56.035-19.463
			l-18.733-12.842v-14.498c28.05-17.138,44.777-44.513,47.92-74.444c22.911,1.061,38.712-20.82,29.169-39.866v-61.156
			c0-44.226-24.053-59.614-31.402-63.28c-24.606-29.373-61.705-42.688-99.853-41.626c-0.444,0.143-71.094-1.237-107.967,65.911
			c-1.994,3.631-0.667,8.192,2.964,10.187c3.63,1.993,8.192,0.668,10.186-2.964c4.944-8.999,10.123-15.738,16.453-22.626
			c46.731-50.193,129.454-45.21,167.697,1.943c0.842,1.038,1.944,1.832,3.196,2.301c0.237,0.089,23.722,9.353,23.722,50.155v47.341
			c-4.417-1.862-9.202-2.66-13.589-2.529v-18.024c0-32.156-28.675-56.688-62.72-46.475c-41.33,12.4-53.85,54.681-108.988,35.952
			c-6.023-2.046-12.721-1.07-17.916,2.651c-11.288,8.088-7.55,20.852-8.251,25.897c-4.408-0.132-9.152,0.656-13.589,2.529v-24.78
			c0-11.889,1.82-19.99,2.518-23.717c0.792-4.066-1.862-8.005-5.928-8.798c-4.069-0.79-8.005,1.862-8.798,5.928
			c-4.583,22.816-2.031,30.233-2.795,65.184c-1.795,3.584-2.805,7.57-2.805,11.772c0,16.079,14.62,28.896,31.974,28.094
			c3.336,31.881,22.398,60.449,50.721,76.06v12.914l-18.715,12.905l-56.021,19.368c-3.393,1.206-17.074,3.977-28.015,17.242
			c-5.057,6.135-8.625,13.594-10.391,22.322C72.566,477.586,70.449,475.884,71.674,487.231c0.802,7.447,5.39,24.769,30.631,24.769
			h189.432c4.144,0,7.502-3.358,7.502-7.502c0-4.144-3.358-7.502-7.502-7.502H155.064v-82.02c0-4.144-3.359-7.502-7.502-7.502
			s-7.502,3.358-7.502,7.502v82.02h-37.755c-11.497,0-17.315-4.823-15.584-17.712c23.303-116.993,21.971-111.206,23.303-114.981
			c2.506-7.101,7.004-12.808,13.166-16.95c8.108-5.477,7.476-2.817,64.092-23.28l16.673,43.078c2.319,5.989,8,9.649,14.101,9.649
			c7.746,0,10.714-5.037,24.828-14.392l2.618,5.932c4.02,9.111,17.001,9.128,21.03,0l2.618-5.932
			c13.702,9.052,16.756,14.177,24.648,14.177c6.167,0,12.049-3.675,14.455-9.898l16.498-42.694
			c49.103,17.052,57.299,19.688,58.22,19.973c-0.178-0.05-0.485-0.123-0.01,0.108c5.028,2.345,7.88,4.713,7.779,4.638
			c13.47,10.864,12.296,19.935,19.641,55.584c0.71,3.569,3.844,6.037,7.35,6.037C422.482,410.332,426.016,405.991,425.094,401.364z
			 M353.54,164.807c9.38-0.501,16.395,5.991,16.395,13.087c0,7.799-7.819,13.556-16.395,13.102V164.807z M155.666,190.996
			c-8.631,0.456-16.395-5.353-16.395-13.102c0-7.243,7.197-13.58,16.395-13.087V190.996z M178.759,231.284
			c-11.222-23.622-7.404-39.667-8.09-72.559v-18.783c0-3.31,3.254-5.556,6.338-4.507c62.807,21.335,82.174-25.002,118.125-35.788
			c23.154-6.943,43.406,8.386,43.406,32.105c0,0.145,0.134,63.998-0.355,71.26c-3.05,33.799-26.194,53.844-22.388,49.756
			c-1.471,1.025-20.1,25.281-60.69,26.475C219.977,278.993,191.413,258.603,178.759,231.284z M218.045,361.789l-0.098-0.056
			l-17.146-44.301l11.381-7.846l23.822,39.289L218.045,361.789z M259.249,347.687c-0.023,0.049-0.055,0.114-0.093,0.201l-3.14,7.116
			c-4.778-10.813,2.773,2.529-34.051-58.262v-8.008c31.244,10.893,57.286,2.253,58.325,2.148v-0.001l0.113-0.032l0.001,0.002
			c2.145-0.682,4.119-1.018,9.637-3.144v9.079C257.739,350.134,259.563,347.03,259.249,347.687z M293.562,361.486l-17.535-12.611
			c3.871-6.39,17.8-29.383,23.819-39.318l11.382,7.803C293.379,363.549,294.274,361.998,293.562,361.486z"/>
	</g>
</g>
<g>
</g>
<g>
</g>
<g>
</g>
<g>
</g>
<g>
</g>
<g>
</g>
<g>
</g>
<g>
</g>
<g>
</g>
<g>
</g>
<g>
</g>
<g>
</g>
<g>
</g>
<g>
</g>
<g>
</g>
</svg>
