<?xml version="1.0" encoding="UTF-8"?><svg id="Capa_1" xmlns="http://www.w3.org/2000/svg" viewBox="0 0 412.75 200"><defs><style>.cls-1{fill:#f6f6f6;}.cls-2{fill:#fff;}.cls-3{fill:#9f5029;}.cls-4{fill:#dadada;}.cls-5{fill:#b11219;}.cls-6{fill:#5c3f2e;}</style></defs><rect class="cls-5" x="186.27" y="8.78" width="4.74" height="4.84"/><g><polygon class="cls-4" points="57.66 9.47 62.5 9.47 62.5 4.74 67.35 4.74 67.35 0 62.5 0 62.5 4.74 57.66 4.74 57.66 9.47 52.81 9.47 52.81 14.22 57.66 14.22 57.66 9.47"/><polygon class="cls-4" points="43.13 23.7 47.97 23.7 47.97 18.96 52.81 18.96 52.81 14.22 47.97 14.22 47.97 18.95 43.12 18.95 43.12 23.69 38.28 23.69 38.28 28.43 43.13 28.43 43.13 23.7"/><rect class="cls-4" x="67.36" y="52.13" width="4.85" height="4.74"/><rect class="cls-4" x="72.2" y="47.39" width="4.85" height="4.74"/><polygon class="cls-4" points="91.58 33.17 86.74 33.17 86.74 37.9 81.89 37.9 81.89 42.64 86.74 42.64 86.74 37.91 91.58 37.91 91.58 33.17 96.43 33.17 96.43 28.43 91.58 28.43 91.58 33.17"/><rect class="cls-4" x="62.51" y="56.86" width="4.85" height="4.74"/><rect class="cls-4" x="52.81" y="37.9" width="4.85" height="4.74"/><polygon class="cls-4" points="47.97 47.39 43.12 47.39 43.12 52.12 47.97 52.12 47.97 47.39 52.81 47.39 52.81 42.65 47.97 42.65 47.97 47.39"/><rect class="cls-4" x="38.28" y="52.12" width="4.85" height="4.74"/><polygon class="cls-4" points="67.35 33.17 67.35 28.43 62.5 28.43 62.5 33.17 57.66 33.17 57.66 37.9 62.5 37.9 62.5 33.17 67.35 33.17"/><polygon class="cls-4" points="72.2 80.55 67.36 80.55 67.36 85.3 72.21 85.3 72.21 80.56 77.05 80.56 77.05 75.82 72.2 75.82 72.2 80.55"/><polygon class="cls-4" points="91.58 61.6 86.74 61.6 86.74 66.34 81.89 66.34 81.89 71.07 77.05 71.07 77.05 75.81 81.89 75.81 81.89 71.08 86.74 71.08 86.74 66.34 91.58 66.34 91.58 61.6 96.43 61.6 96.43 56.86 91.58 56.86 91.58 61.6"/><rect class="cls-4" x="62.51" y="85.29" width="4.85" height="4.75"/><polygon class="cls-4" points="340.54 9.47 345.39 9.47 345.39 4.74 350.23 4.74 350.23 0 345.38 0 345.38 4.74 340.54 4.74 340.54 9.47 335.7 9.47 335.7 14.22 340.54 14.22 340.54 9.47"/><polygon class="cls-4" points="326.01 23.7 330.85 23.7 330.85 18.96 335.7 18.96 335.7 14.22 330.85 14.22 330.85 18.95 326.01 18.95 326.01 23.69 321.16 23.69 321.16 28.43 326.01 28.43 326.01 23.7"/><rect class="cls-4" x="350.24" y="52.13" width="4.85" height="4.74"/><rect class="cls-4" x="355.08" y="47.39" width="4.85" height="4.74"/><polygon class="cls-4" points="374.46 28.43 374.46 33.17 369.62 33.17 369.62 37.9 364.78 37.9 364.78 42.64 369.62 42.64 369.62 37.91 374.46 37.91 374.46 33.17 379.31 33.17 379.31 28.43 374.46 28.43"/><rect class="cls-4" x="345.4" y="56.86" width="4.85" height="4.74"/><rect class="cls-4" x="335.7" y="37.9" width="4.85" height="4.74"/><polygon class="cls-4" points="330.85 47.39 326.01 47.39 326.01 52.12 330.85 52.12 330.85 47.39 335.7 47.39 335.7 42.65 330.85 42.65 330.85 47.39"/><rect class="cls-4" x="321.16" y="52.12" width="4.85" height="4.74"/><polygon class="cls-4" points="350.23 33.17 350.23 28.43 345.38 28.43 345.38 33.17 340.54 33.17 340.54 37.9 345.39 37.9 345.39 33.17 350.23 33.17"/><polygon class="cls-4" points="355.08 80.55 350.24 80.55 350.24 85.3 355.09 85.3 355.09 80.56 359.93 80.56 359.93 75.82 355.08 75.82 355.08 80.55"/><polygon class="cls-4" points="374.46 61.6 369.62 61.6 369.62 66.34 364.78 66.34 364.78 71.07 359.93 71.07 359.93 75.81 364.78 75.81 364.78 71.08 369.62 71.08 369.62 66.34 374.46 66.34 374.46 61.6 379.31 61.6 379.31 56.86 374.46 56.86 374.46 61.6"/><rect class="cls-4" x="345.4" y="85.29" width="4.85" height="4.75"/><rect class="cls-4" x="114.51" y="34.69" width="4.74" height="4.84"/><rect class="cls-4" x="119.25" y="29.85" width="4.74" height="4.84"/><rect class="cls-4" x="128.72" y="20.15" width="4.74" height="4.84"/><rect class="cls-4" x="123.99" y="25" width="4.74" height="4.85"/><polygon class="cls-4" points="138.2 15.31 133.46 15.31 133.46 20.15 138.2 20.15 138.2 15.31 142.94 15.31 142.94 10.47 138.2 10.47 138.2 15.31"/><polygon class="cls-4" points="297.57 34.61 292.83 34.61 292.83 39.45 297.57 39.45 297.57 44.29 302.31 44.29 302.31 39.44 297.57 39.44 297.57 34.61"/><polygon class="cls-4" points="288.09 24.91 283.35 24.91 283.35 20.07 278.62 20.07 278.62 15.22 273.88 15.22 273.88 10.38 269.14 10.38 269.14 15.23 273.88 15.23 273.88 20.07 278.61 20.07 278.61 24.92 283.35 24.92 283.35 29.76 288.09 29.76 288.09 34.61 292.83 34.61 292.83 29.76 288.09 29.76 288.09 24.91"/><rect class="cls-4" x="162.57" y="33" width="4.74" height="4.84"/><rect class="cls-4" x="176.79" y="18.47" width="4.74" height="4.84"/><polygon class="cls-4" points="172.05 28.15 167.31 28.15 167.31 33 172.05 33 172.05 28.15 176.8 28.15 176.8 23.31 172.05 23.31 172.05 28.15"/><rect class="cls-4" x="181.53" y="13.62" width="4.74" height="4.84"/><rect class="cls-4" x="209.97" y="42.7" width="4.74" height="4.85"/><rect class="cls-4" x="205.23" y="47.55" width="4.74" height="4.84"/><rect class="cls-4" x="195.75" y="57.23" width="4.74" height="4.85"/><polygon class="cls-4" points="191.02 66.92 191.01 66.92 191.01 66.92 186.27 66.92 186.27 71.77 186.28 71.77 191.01 71.77 191.02 71.77 191.02 66.93 195.76 66.93 195.76 62.08 191.02 62.08 191.02 66.92"/><rect class="cls-4" x="191" y="33" width="4.74" height="4.84"/><polygon class="cls-4" points="209.96 23.31 209.96 18.47 205.22 18.47 205.22 23.31 200.49 23.31 200.49 23.31 200.49 28.15 195.74 28.15 195.74 33 200.49 33 200.49 28.15 205.23 28.15 205.23 23.31 205.23 23.31 209.96 23.31"/><rect class="cls-4" x="209.96" y="13.62" width="4.74" height="4.84"/><rect class="cls-4" x="238.4" y="42.7" width="4.74" height="4.85"/><polygon class="cls-4" points="233.66 52.39 228.92 52.39 228.92 57.23 224.19 57.23 224.19 62.08 228.93 62.08 228.93 57.23 233.66 57.23 233.66 52.39 238.4 52.39 238.4 47.55 233.66 47.55 233.66 52.39"/><polygon class="cls-4" points="219.45 66.92 219.44 66.92 219.44 66.92 214.7 66.92 214.7 71.77 214.71 71.77 219.44 71.77 219.45 71.77 219.45 66.93 224.19 66.93 224.19 62.08 219.45 62.08 219.45 66.92"/></g><g><polygon class="cls-2" points="72.2 4.73 67.36 4.73 67.36 9.47 72.2 9.47 72.2 14.21 77.05 14.21 77.05 9.47 72.2 9.47 72.2 4.73"/><polygon class="cls-2" points="81.89 14.21 77.05 14.21 77.05 18.95 81.89 18.95 81.89 23.69 86.74 23.69 86.74 18.95 81.89 18.95 81.89 14.21"/><rect class="cls-2" x="86.74" y="23.69" width="4.84" height="4.74"/><rect class="cls-2" x="57.66" y="52.13" width="4.85" height="4.74"/><rect class="cls-2" x="52.81" y="47.39" width="4.84" height="4.74"/><polygon class="cls-2" points="38.28 37.91 43.12 37.91 43.12 42.65 47.97 42.65 47.97 37.91 43.12 37.91 43.12 33.17 38.28 33.17 38.28 28.44 33.43 28.44 33.43 33.18 38.28 33.18 38.28 37.91"/><rect class="cls-2" x="67.36" y="33.16" width="4.84" height="4.74"/><rect class="cls-2" x="72.2" y="37.9" width="4.85" height="4.74"/><polygon class="cls-2" points="81.89 42.64 77.05 42.64 77.05 47.38 81.89 47.38 81.89 52.12 86.74 52.12 86.74 47.38 81.89 47.38 81.89 42.64"/><rect class="cls-2" x="86.74" y="52.11" width="4.84" height="4.74"/><polygon class="cls-2" points="57.66 75.82 52.81 75.82 52.81 80.56 57.66 80.56 57.66 85.3 62.5 85.3 62.5 80.56 57.66 80.56 57.66 75.82"/><polygon class="cls-2" points="47.97 66.34 43.12 66.34 43.12 61.6 38.28 61.6 38.28 56.86 33.43 56.86 33.43 61.61 38.28 61.61 38.28 66.34 43.12 66.34 43.12 71.08 47.97 71.08 47.97 75.82 52.81 75.82 52.81 71.08 47.97 71.08 47.97 66.34"/><polygon class="cls-2" points="355.08 4.73 350.24 4.73 350.24 9.47 355.08 9.47 355.08 14.21 359.93 14.21 359.93 9.47 355.08 9.47 355.08 4.73"/><polygon class="cls-2" points="364.78 14.21 359.93 14.21 359.93 18.95 364.78 18.95 364.78 23.69 369.62 23.69 369.62 18.95 364.78 18.95 364.78 14.21"/><rect class="cls-2" x="369.63" y="23.69" width="4.84" height="4.74"/><rect class="cls-2" x="340.54" y="52.13" width="4.85" height="4.74"/><rect class="cls-2" x="335.7" y="47.39" width="4.84" height="4.74"/><polygon class="cls-2" points="321.16 37.91 326.01 37.91 326.01 42.65 330.85 42.65 330.85 37.91 326.01 37.91 326.01 33.17 321.16 33.17 321.16 28.44 316.32 28.44 316.32 33.18 321.16 33.18 321.16 37.91"/><rect class="cls-2" x="350.24" y="33.16" width="4.84" height="4.74"/><rect class="cls-2" x="355.08" y="37.9" width="4.85" height="4.74"/><polygon class="cls-2" points="364.78 42.64 359.93 42.64 359.93 47.38 364.78 47.38 364.78 52.12 369.62 52.12 369.62 47.38 364.78 47.38 364.78 42.64"/><rect class="cls-2" x="369.63" y="52.11" width="4.84" height="4.74"/><polygon class="cls-2" points="340.54 75.82 335.7 75.82 335.7 80.56 340.54 80.56 340.54 85.3 345.39 85.3 345.39 80.56 340.54 80.56 340.54 75.82"/><polygon class="cls-2" points="330.85 66.34 326.01 66.34 326.01 61.6 321.16 61.6 321.16 56.86 316.32 56.86 316.32 61.61 321.16 61.61 321.16 66.34 326.01 66.34 326.01 71.08 330.85 71.08 330.85 75.82 335.69 75.82 335.69 71.08 330.85 71.08 330.85 66.34"/><polygon class="cls-2" points="138.21 63.77 133.47 63.77 133.47 58.93 128.74 58.93 128.74 54.07 124 54.07 124 49.23 119.26 49.23 119.26 54.07 124 54.07 124 58.93 128.73 58.93 128.73 63.77 133.47 63.77 133.47 68.61 138.21 68.61 138.21 73.46 142.94 73.46 142.94 68.61 138.21 68.61 138.21 63.77"/><polygon class="cls-2" points="114.52 39.54 109.78 39.54 109.78 44.39 114.51 44.39 114.51 49.24 119.25 49.24 119.25 44.39 114.52 44.39 114.52 39.54"/><rect class="cls-2" x="292.83" y="44.3" width="4.74" height="4.84"/><rect class="cls-2" x="288.09" y="49.15" width="4.74" height="4.85"/><polygon class="cls-2" points="283.35 58.84 278.61 58.84 278.61 63.68 283.36 63.68 283.36 58.84 288.09 58.84 288.09 54 283.35 54 283.35 58.84"/><polygon class="cls-2" points="273.88 68.53 269.14 68.53 269.14 73.37 273.88 73.37 273.88 68.53 278.62 68.53 278.62 63.69 273.88 63.69 273.88 68.53"/><rect class="cls-2" x="167.32" y="47.55" width="4.74" height="4.84"/><polygon class="cls-2" points="181.53 57.23 176.8 57.23 176.8 52.38 172.06 52.38 172.06 57.23 176.8 57.23 176.8 62.08 181.53 62.08 181.53 66.93 186.27 66.93 186.27 62.08 181.53 62.08 181.53 57.23"/><polygon class="cls-2" points="162.58 37.85 157.84 37.85 157.84 42.7 162.58 42.7 162.58 47.55 167.31 47.55 167.31 42.7 162.58 42.7 162.58 37.85"/><polygon class="cls-2" points="214.71 33 209.96 33 209.96 37.85 214.71 37.85 214.71 42.69 219.45 42.69 219.45 37.84 214.71 37.84 214.71 33"/><rect class="cls-2" x="205.23" y="28.15" width="4.74" height="4.85"/><polygon class="cls-2" points="195.75 13.62 191.01 13.62 191.01 8.77 186.27 8.77 186.27 13.62 191.01 13.62 191.01 18.46 195.75 18.46 195.75 23.31 200.49 23.31 200.49 18.46 195.75 18.46 195.75 13.62"/><rect class="cls-2" x="195.75" y="47.55" width="4.74" height="4.84"/><polygon class="cls-2" points="205.23 52.38 200.49 52.38 200.49 57.23 205.23 57.23 205.23 62.08 209.96 62.08 209.96 57.23 205.23 57.23 205.23 52.38"/><rect class="cls-2" x="209.96" y="62.08" width="4.74" height="4.85"/><polygon class="cls-2" points="191.01 37.85 186.27 37.85 186.27 42.7 191.01 42.7 191.01 47.55 195.75 47.55 195.75 42.7 191.01 42.7 191.01 37.85"/><polygon class="cls-2" points="243.14 33 238.4 33 238.4 28.15 233.66 28.15 233.66 33 238.4 33 238.4 37.85 243.13 37.85 243.13 42.69 247.88 42.69 247.88 37.84 243.14 37.84 243.14 33"/><polygon class="cls-2" points="228.92 23.31 228.92 18.46 224.18 18.46 224.18 13.62 219.45 13.62 219.45 8.77 214.71 8.77 214.71 13.62 219.44 13.62 219.44 18.46 224.18 18.46 224.18 23.31 228.92 23.31"/><rect class="cls-2" x="228.91" y="23.31" width="4.75" height="4.85"/></g><g><path class="cls-1" d="M0,175.27H12.42v1.14H6.79v14.24h-1.18v-14.24H0v-1.14Z"/><path class="cls-1" d="M20.37,175.27v15.38h-1.18v-15.38h1.18Z"/><path class="cls-1" d="M28.82,175.27h10.71v1.14h-9.53v6.13h8.11v1.1h-8.11v5.86h9.53v1.14h-10.71v-15.38Z"/><path class="cls-1" d="M53.87,175.27c.84,0,1.59,.13,2.25,.39,.66,.26,1.21,.62,1.67,1.07,.45,.45,.8,.98,1.04,1.58,.24,.6,.36,1.23,.36,1.9,0,.54-.08,1.06-.24,1.56-.16,.5-.39,.96-.69,1.38-.3,.42-.67,.79-1.11,1.09-.44,.31-.95,.55-1.52,.72l4.1,5.68h-1.44l-3.94-5.46c-.08,.01-.16,.02-.24,.02h-5.93v5.44h-1.18v-15.38h6.87Zm-5.69,1.1v7.73h5.65c.68,0,1.28-.11,1.8-.32,.52-.21,.96-.49,1.32-.85,.36-.36,.63-.77,.81-1.23,.18-.47,.27-.96,.27-1.47s-.09-1-.27-1.47c-.18-.47-.45-.88-.81-1.23-.36-.35-.8-.64-1.32-.85-.52-.21-1.12-.32-1.8-.32h-5.65Z"/><path class="cls-1" d="M73.73,175.27c.84,0,1.59,.13,2.25,.39,.66,.26,1.21,.62,1.67,1.07,.45,.45,.8,.98,1.04,1.58,.24,.6,.36,1.23,.36,1.9,0,.54-.08,1.06-.24,1.56-.16,.5-.39,.96-.69,1.38-.3,.42-.67,.79-1.11,1.09-.44,.31-.95,.55-1.52,.72l4.1,5.68h-1.44l-3.94-5.46c-.08,.01-.16,.02-.24,.02h-5.93v5.44h-1.18v-15.38h6.87Zm-5.69,1.1v7.73h5.65c.68,0,1.28-.11,1.8-.32,.52-.21,.96-.49,1.32-.85,.36-.36,.63-.77,.81-1.23,.18-.47,.27-.96,.27-1.47s-.09-1-.27-1.47c-.18-.47-.45-.88-.81-1.23-.36-.35-.8-.64-1.32-.85-.52-.21-1.12-.32-1.8-.32h-5.65Z"/><path class="cls-1" d="M93.18,175.27l7.15,15.38h-1.3l-1.6-3.47h-9.79l-1.58,3.47h-1.32l7.15-15.38h1.28Zm-5.01,10.8h8.75l-4.37-9.54-4.37,9.54Z"/><path class="cls-1" d="M116.79,175.27h6.09c1.19,0,2.23,.2,3.14,.6,.91,.4,1.66,.95,2.27,1.64,.61,.69,1.07,1.5,1.38,2.44,.31,.93,.47,1.94,.47,3.02s-.16,2.09-.47,3.03c-.31,.94-.77,1.75-1.38,2.44-.61,.69-1.36,1.23-2.27,1.63-.91,.39-1.95,.59-3.14,.59h-6.09v-15.38Zm1.18,1.14v13.09h4.85c.99,0,1.86-.17,2.62-.5,.76-.33,1.4-.8,1.92-1.38,.52-.59,.92-1.27,1.19-2.07,.27-.8,.41-1.66,.41-2.59s-.14-1.8-.41-2.59c-.27-.8-.67-1.49-1.19-2.07-.52-.58-1.16-1.04-1.92-1.38-.76-.33-1.63-.5-2.62-.5h-4.85Z"/><path class="cls-1" d="M137.59,175.27h10.71v1.14h-9.53v6.13h8.11v1.1h-8.11v5.86h9.53v1.14h-10.71v-15.38Z"/><path class="cls-1" d="M164.2,182.96c0-1.1,.22-2.14,.66-3.11,.44-.97,1.04-1.81,1.79-2.53,.75-.72,1.63-1.29,2.64-1.72,1.01-.42,2.07-.63,3.19-.63s2.2,.21,3.21,.63c1.01,.42,1.88,.99,2.64,1.72,.75,.72,1.34,1.57,1.78,2.53,.43,.97,.65,2,.65,3.11s-.22,2.14-.65,3.11c-.43,.97-1.03,1.81-1.78,2.53-.75,.72-1.63,1.29-2.64,1.72-1.01,.42-2.07,.63-3.21,.63s-2.18-.21-3.19-.63c-1.01-.42-1.88-.99-2.64-1.72-.75-.72-1.35-1.57-1.79-2.53-.44-.97-.66-2-.66-3.11Zm4.03,0c0,.58,.11,1.12,.33,1.64,.22,.51,.52,.96,.91,1.33s.84,.67,1.35,.89c.51,.22,1.06,.33,1.65,.33s1.16-.11,1.67-.33c.51-.22,.96-.51,1.34-.89s.68-.82,.9-1.33c.22-.51,.33-1.06,.33-1.64s-.11-1.12-.33-1.64c-.22-.51-.52-.96-.9-1.33s-.83-.67-1.34-.89c-.51-.22-1.07-.33-1.67-.33s-1.14,.11-1.65,.33c-.51,.22-.96,.51-1.35,.89s-.69,.82-.91,1.33c-.22,.51-.33,1.06-.33,1.64Z"/><path class="cls-1" d="M186.99,175.27h6.87c1.04,0,1.94,.16,2.71,.48s1.4,.76,1.91,1.3c.51,.55,.88,1.17,1.13,1.88,.25,.71,.37,1.45,.37,2.23,0,.82-.12,1.58-.37,2.31-.25,.72-.62,1.36-1.13,1.9s-1.14,.98-1.91,1.3-1.67,.48-2.71,.48h-2.88v3.49h-4v-15.38Zm4,3.59v4.71h2.66c.84,0,1.43-.23,1.78-.68,.35-.45,.52-1.02,.52-1.71,0-.3-.04-.59-.12-.88-.08-.28-.21-.53-.4-.75-.19-.22-.43-.39-.72-.51-.29-.12-.65-.19-1.06-.19h-2.66Z"/><path class="cls-1" d="M205.36,182.96c0-1.1,.22-2.14,.66-3.11,.44-.97,1.04-1.81,1.79-2.53,.75-.72,1.63-1.29,2.64-1.72,1.01-.42,2.07-.63,3.19-.63s2.2,.21,3.21,.63c1.01,.42,1.88,.99,2.64,1.72,.75,.72,1.34,1.57,1.78,2.53,.43,.97,.65,2,.65,3.11s-.22,2.14-.65,3.11c-.43,.97-1.03,1.81-1.78,2.53-.75,.72-1.63,1.29-2.64,1.72-1.01,.42-2.07,.63-3.21,.63s-2.18-.21-3.19-.63c-1.01-.42-1.88-.99-2.64-1.72-.75-.72-1.35-1.57-1.79-2.53-.44-.97-.66-2-.66-3.11Zm4.03,0c0,.58,.11,1.12,.33,1.64,.22,.51,.52,.96,.91,1.33s.84,.67,1.35,.89c.51,.22,1.06,.33,1.65,.33s1.16-.11,1.67-.33c.51-.22,.96-.51,1.34-.89s.68-.82,.9-1.33c.22-.51,.33-1.06,.33-1.64s-.11-1.12-.33-1.64c-.22-.51-.52-.96-.9-1.33s-.83-.67-1.34-.89c-.51-.22-1.07-.33-1.67-.33s-1.14,.11-1.65,.33c-.51,.22-.96,.51-1.35,.89s-.69,.82-.91,1.33c-.22,.51-.33,1.06-.33,1.64Z"/><path class="cls-1" d="M235.77,175.27c1,0,1.86,.15,2.6,.44,.73,.3,1.34,.7,1.82,1.21s.84,1.11,1.07,1.79c.23,.68,.35,1.41,.35,2.17,0,.54-.06,1.06-.19,1.58-.13,.51-.32,.99-.57,1.43-.25,.44-.57,.84-.96,1.2-.39,.36-.84,.66-1.36,.9l3.38,4.65h-4.77l-2.96-4.12h-2.04v4.12h-3.98v-15.38h7.61Zm-3.64,3.59v4.1h3.42c.4,0,.74-.06,1.02-.17,.28-.11,.51-.26,.68-.44,.17-.18,.3-.4,.38-.65,.08-.25,.12-.51,.12-.77,0-.59-.17-1.08-.5-1.48-.33-.39-.9-.59-1.7-.59h-3.42Z"/><path class="cls-1" d="M247.09,175.27h13.7v3.82h-4.85v11.55h-4v-11.55h-4.85v-3.82Z"/><path class="cls-1" d="M280.93,175.27v8.66c0,.99-.16,1.91-.47,2.76s-.77,1.6-1.38,2.23-1.36,1.13-2.25,1.49c-.89,.36-1.92,.54-3.08,.54s-2.2-.18-3.1-.54c-.89-.36-1.64-.86-2.24-1.49-.6-.63-1.05-1.37-1.36-2.23-.31-.85-.46-1.77-.46-2.76v-8.66h4v8.42c0,1.12,.27,1.97,.8,2.56,.53,.59,1.32,.89,2.36,.89s1.85-.3,2.39-.89c.54-.59,.81-1.45,.81-2.56v-8.42h3.98Z"/><path class="cls-1" d="M287.7,190.65v-15.38h3.4l6.95,8.6v-8.6h3.98v15.38h-3.38l-6.95-8.58v8.58h-4Z"/><path class="cls-1" d="M313.01,175.27v15.38h-4v-15.38h4Z"/><path class="cls-1" d="M320,175.27h7.23c1.21,0,2.28,.2,3.21,.61,.93,.41,1.69,.96,2.31,1.67,.61,.7,1.08,1.52,1.39,2.45,.31,.93,.47,1.92,.47,2.96s-.16,2.04-.47,2.98c-.31,.93-.78,1.75-1.39,2.44-.61,.7-1.38,1.25-2.31,1.66-.93,.41-1.99,.61-3.21,.61h-7.23v-15.38Zm4,3.82v7.75h2.94c.6,0,1.13-.1,1.58-.29,.45-.19,.83-.46,1.14-.8,.31-.34,.54-.75,.69-1.22s.23-1,.23-1.58c0-1.16-.31-2.09-.92-2.8-.61-.71-1.52-1.06-2.72-1.06h-2.94Z"/><path class="cls-1" d="M349.04,175.27l6.29,15.38h-4.35l-.86-2.25h-6.13l-.86,2.25h-4.35l6.31-15.38h3.95Zm-1.98,5.05l-1.72,4.51h3.42l-1.7-4.51Z"/><path class="cls-1" d="M361.13,175.27h7.23c1.21,0,2.28,.2,3.21,.61,.93,.41,1.69,.96,2.31,1.67,.61,.7,1.08,1.52,1.39,2.45,.31,.93,.47,1.92,.47,2.96s-.16,2.04-.47,2.98c-.31,.93-.78,1.75-1.39,2.44-.61,.7-1.38,1.25-2.31,1.66-.93,.41-1.99,.61-3.21,.61h-7.23v-15.38Zm4,3.82v7.75h2.94c.6,0,1.13-.1,1.58-.29,.45-.19,.83-.46,1.14-.8,.31-.34,.54-.75,.69-1.22s.23-1,.23-1.58c0-1.16-.31-2.09-.92-2.8-.61-.71-1.52-1.06-2.72-1.06h-2.94Z"/><path class="cls-1" d="M382.06,175.27h11.97v3.82h-7.97v2.21h6.55v3.57h-6.55v1.97h7.97v3.81h-11.97v-15.38Z"/><path class="cls-1" d="M403.84,186.04v.1c0,.15,.05,.3,.16,.46,.11,.16,.27,.32,.48,.45,.21,.14,.49,.25,.82,.34,.33,.09,.73,.14,1.18,.14,.75,0,1.26-.1,1.55-.31s.43-.42,.43-.64c0-.33-.21-.61-.62-.85-.41-.24-1.09-.51-2.04-.83-.63-.2-1.28-.43-1.95-.7-.67-.27-1.29-.6-1.85-1s-1.02-.87-1.39-1.44c-.37-.56-.55-1.24-.55-2.03,0-.74,.15-1.4,.45-1.98s.72-1.08,1.26-1.5c.54-.41,1.18-.73,1.93-.96,.75-.22,1.56-.34,2.46-.34s1.75,.12,2.53,.35c.78,.23,1.45,.56,2.02,1s1.01,.96,1.34,1.57c.33,.61,.49,1.3,.49,2.06v.22h-3.9v-.14c0-.18-.05-.37-.15-.57-.1-.2-.25-.37-.45-.53-.2-.16-.45-.29-.75-.38-.3-.1-.65-.15-1.05-.15-.68,0-1.17,.11-1.46,.33-.29,.22-.44,.46-.44,.72,0,.3,.2,.56,.59,.77,.39,.21,1.06,.47,1.99,.79,.53,.18,1.14,.41,1.82,.68,.68,.27,1.31,.61,1.91,1.03,.59,.41,1.09,.92,1.5,1.52,.41,.6,.61,1.32,.61,2.16,0,.75-.16,1.41-.47,1.98-.31,.57-.75,1.05-1.3,1.43-.55,.38-1.21,.67-1.96,.87-.75,.2-1.58,.3-2.47,.3s-1.8-.11-2.61-.32c-.81-.21-1.51-.52-2.1-.92-.59-.4-1.06-.9-1.4-1.49-.34-.59-.51-1.26-.51-2.01v-.18h3.9Z"/></g><g><path class="cls-4" d="M2.99,197.09c.31,.31,.45,.72,.45,1.2s-.15,.91-.45,1.22c-.32,.33-.72,.49-1.2,.49s-.88-.16-1.19-.49c-.3-.31-.47-.72-.47-1.22s.15-.9,.45-1.2c.31-.31,.71-.47,1.2-.47s.88,.16,1.2,.47"/><path class="cls-4" d="M8.92,197.09c.31,.31,.45,.72,.45,1.2s-.15,.91-.45,1.22c-.32,.33-.72,.49-1.2,.49s-.88-.16-1.19-.49c-.3-.31-.47-.72-.47-1.22s.15-.9,.45-1.2c.31-.31,.71-.47,1.2-.47s.88,.16,1.2,.47"/><path class="cls-4" d="M14.85,197.09c.31,.31,.45,.72,.45,1.2s-.15,.91-.45,1.22c-.32,.33-.72,.49-1.2,.49s-.88-.16-1.19-.49c-.3-.31-.47-.72-.47-1.22s.15-.9,.45-1.2c.31-.31,.71-.47,1.2-.47s.88,.16,1.2,.47"/><path class="cls-4" d="M20.78,197.09c.31,.31,.45,.72,.45,1.2s-.15,.91-.45,1.22c-.32,.33-.72,.49-1.2,.49s-.88-.16-1.19-.49c-.3-.31-.47-.72-.47-1.22s.15-.9,.45-1.2c.31-.31,.71-.47,1.2-.47s.88,.16,1.2,.47"/><path class="cls-4" d="M26.72,197.09c.31,.31,.45,.72,.45,1.2s-.15,.91-.45,1.22c-.32,.33-.72,.49-1.2,.49s-.88-.16-1.19-.49c-.3-.31-.47-.72-.47-1.22s.15-.9,.45-1.2c.31-.31,.71-.47,1.2-.47s.88,.16,1.2,.47"/><path class="cls-4" d="M32.64,197.09c.3,.31,.45,.72,.45,1.2s-.15,.91-.45,1.22c-.33,.33-.72,.49-1.2,.49s-.88-.16-1.19-.49c-.31-.31-.47-.72-.47-1.22s.15-.9,.45-1.2c.31-.31,.71-.47,1.2-.47s.88,.16,1.2,.47"/><path class="cls-4" d="M38.56,197.09c.31,.31,.45,.72,.45,1.2s-.15,.91-.45,1.22c-.32,.33-.72,.49-1.2,.49s-.88-.16-1.19-.49c-.31-.31-.47-.72-.47-1.22s.15-.9,.45-1.2c.31-.31,.71-.47,1.21-.47s.88,.16,1.2,.47"/><path class="cls-4" d="M44.49,197.09c.31,.31,.45,.72,.45,1.2s-.15,.91-.45,1.22c-.32,.33-.72,.49-1.2,.49s-.88-.16-1.19-.49c-.31-.31-.47-.72-.47-1.22s.15-.9,.45-1.2c.31-.31,.71-.47,1.21-.47s.88,.16,1.2,.47"/><path class="cls-4" d="M50.43,197.09c.31,.31,.45,.72,.45,1.2s-.15,.91-.45,1.22c-.32,.33-.72,.49-1.2,.49s-.88-.16-1.19-.49c-.31-.31-.47-.72-.47-1.22s.15-.9,.45-1.2c.31-.31,.71-.47,1.21-.47s.88,.16,1.2,.47"/><path class="cls-4" d="M56.36,197.09c.31,.31,.45,.72,.45,1.2s-.15,.91-.45,1.22c-.32,.33-.72,.49-1.2,.49s-.88-.16-1.19-.49c-.31-.31-.47-.72-.47-1.22s.15-.9,.45-1.2c.31-.31,.71-.47,1.21-.47s.88,.16,1.2,.47"/><path class="cls-4" d="M62.29,197.09c.31,.31,.45,.72,.45,1.2s-.15,.91-.45,1.22c-.32,.33-.72,.49-1.2,.49s-.88-.16-1.19-.49c-.31-.31-.47-.72-.47-1.22s.15-.9,.45-1.2c.31-.31,.71-.47,1.21-.47s.88,.16,1.2,.47"/><path class="cls-4" d="M68.22,197.09c.31,.31,.45,.72,.45,1.2s-.15,.91-.45,1.22c-.32,.33-.72,.49-1.2,.49s-.88-.16-1.19-.49c-.31-.31-.47-.72-.47-1.22s.15-.9,.45-1.2c.31-.31,.71-.47,1.21-.47s.88,.16,1.2,.47"/><path class="cls-4" d="M74.15,197.09c.31,.31,.45,.72,.45,1.2s-.15,.91-.45,1.22c-.32,.33-.72,.49-1.2,.49s-.88-.16-1.19-.49c-.31-.31-.47-.72-.47-1.22s.15-.9,.45-1.2c.31-.31,.71-.47,1.21-.47s.88,.16,1.2,.47"/><path class="cls-4" d="M80.08,197.09c.31,.31,.45,.72,.45,1.2s-.15,.91-.45,1.22c-.32,.33-.72,.49-1.2,.49s-.88-.16-1.19-.49c-.31-.31-.47-.72-.47-1.22s.15-.9,.45-1.2c.31-.31,.71-.47,1.21-.47s.88,.16,1.2,.47"/><path class="cls-4" d="M86.02,197.09c.31,.31,.45,.72,.45,1.2s-.15,.91-.45,1.22c-.32,.33-.72,.49-1.2,.49s-.88-.16-1.19-.49c-.31-.31-.47-.72-.47-1.22s.15-.9,.45-1.2c.31-.31,.71-.47,1.21-.47s.88,.16,1.2,.47"/><path class="cls-4" d="M91.94,197.09c.31,.31,.45,.72,.45,1.2s-.15,.91-.45,1.22c-.32,.33-.72,.49-1.2,.49s-.88-.16-1.19-.49c-.3-.31-.47-.72-.47-1.22s.15-.9,.45-1.2,.71-.47,1.2-.47,.88,.16,1.2,.47"/><path class="cls-4" d="M97.87,197.09c.31,.31,.45,.72,.45,1.2s-.15,.91-.45,1.22c-.32,.33-.72,.49-1.2,.49s-.88-.16-1.19-.49c-.31-.31-.47-.72-.47-1.22s.15-.9,.45-1.2c.31-.31,.71-.47,1.2-.47s.88,.16,1.2,.47"/><path class="cls-4" d="M103.8,197.09c.3,.31,.45,.72,.45,1.2s-.15,.91-.45,1.22c-.32,.33-.72,.49-1.2,.49s-.88-.16-1.19-.49c-.31-.31-.47-.72-.47-1.22s.15-.9,.45-1.2c.31-.31,.71-.47,1.2-.47s.88,.16,1.2,.47"/><path class="cls-4" d="M109.73,197.09c.3,.31,.45,.72,.45,1.2s-.15,.91-.45,1.22c-.32,.33-.72,.49-1.2,.49s-.88-.16-1.19-.49c-.31-.31-.47-.72-.47-1.22s.15-.9,.45-1.2,.71-.47,1.2-.47,.88,.16,1.2,.47"/><path class="cls-4" d="M115.66,197.09c.3,.31,.45,.72,.45,1.2s-.15,.91-.45,1.22c-.32,.33-.72,.49-1.2,.49s-.88-.16-1.19-.49c-.31-.31-.47-.72-.47-1.22s.15-.9,.45-1.2c.31-.31,.71-.47,1.2-.47s.88,.16,1.2,.47"/><path class="cls-4" d="M121.59,197.09c.3,.31,.45,.72,.45,1.2s-.15,.91-.45,1.22c-.32,.33-.72,.49-1.2,.49s-.88-.16-1.19-.49c-.31-.31-.47-.72-.47-1.22s.15-.9,.45-1.2c.31-.31,.71-.47,1.2-.47s.88,.16,1.2,.47"/><path class="cls-4" d="M127.53,197.09c.3,.31,.45,.72,.45,1.2s-.15,.91-.45,1.22c-.32,.33-.72,.49-1.2,.49s-.88-.16-1.19-.49c-.31-.31-.47-.72-.47-1.22s.15-.9,.45-1.2c.31-.31,.71-.47,1.2-.47s.88,.16,1.2,.47"/><path class="cls-4" d="M133.46,197.09c.3,.31,.45,.72,.45,1.2s-.15,.91-.45,1.22c-.32,.33-.72,.49-1.2,.49s-.88-.16-1.19-.49c-.31-.31-.47-.72-.47-1.22s.15-.9,.45-1.2c.31-.31,.71-.47,1.2-.47s.88,.16,1.2,.47"/><path class="cls-4" d="M139.39,197.09c.3,.31,.45,.72,.45,1.2s-.15,.91-.45,1.22c-.32,.33-.72,.49-1.2,.49s-.88-.16-1.19-.49c-.31-.31-.47-.72-.47-1.22s.15-.9,.45-1.2,.71-.47,1.2-.47,.88,.16,1.2,.47"/><path class="cls-4" d="M145.3,197.09c.31,.31,.45,.72,.45,1.2s-.15,.91-.45,1.22c-.32,.33-.72,.49-1.2,.49s-.88-.16-1.19-.49c-.31-.31-.47-.72-.47-1.22s.15-.9,.45-1.2c.31-.31,.71-.47,1.21-.47s.88,.16,1.2,.47"/><path class="cls-4" d="M151.23,197.09c.31,.31,.45,.72,.45,1.2s-.15,.91-.45,1.22c-.32,.33-.72,.49-1.2,.49s-.88-.16-1.19-.49c-.31-.31-.47-.72-.47-1.22s.15-.9,.45-1.2c.31-.31,.71-.47,1.21-.47s.88,.16,1.2,.47"/><path class="cls-4" d="M157.17,197.09c.31,.31,.45,.72,.45,1.2s-.15,.91-.45,1.22c-.32,.33-.72,.49-1.2,.49s-.88-.16-1.2-.49c-.3-.31-.47-.72-.47-1.22s.15-.9,.45-1.2c.31-.31,.71-.47,1.21-.47s.88,.16,1.2,.47"/><path class="cls-4" d="M163.1,197.09c.31,.31,.45,.72,.45,1.2s-.15,.91-.45,1.22c-.32,.33-.72,.49-1.2,.49s-.88-.16-1.2-.49c-.3-.31-.47-.72-.47-1.22s.15-.9,.45-1.2c.31-.31,.71-.47,1.21-.47s.88,.16,1.2,.47"/><path class="cls-4" d="M169.03,197.09c.31,.31,.45,.72,.45,1.2s-.15,.91-.45,1.22c-.32,.33-.72,.49-1.2,.49s-.88-.16-1.2-.49c-.3-.31-.47-.72-.47-1.22s.15-.9,.45-1.2c.31-.31,.71-.47,1.21-.47s.88,.16,1.2,.47"/><path class="cls-4" d="M174.96,197.09c.31,.31,.45,.72,.45,1.2s-.15,.91-.45,1.22c-.32,.33-.72,.49-1.2,.49s-.88-.16-1.2-.49c-.3-.31-.47-.72-.47-1.22s.15-.9,.45-1.2c.31-.31,.71-.47,1.21-.47s.88,.16,1.2,.47"/><path class="cls-4" d="M180.89,197.09c.31,.31,.45,.72,.45,1.2s-.15,.91-.45,1.22c-.32,.33-.72,.49-1.2,.49s-.88-.16-1.2-.49c-.3-.31-.47-.72-.47-1.22s.15-.9,.45-1.2c.31-.31,.71-.47,1.21-.47s.88,.16,1.2,.47"/><path class="cls-4" d="M186.83,197.09c.31,.31,.45,.72,.45,1.2s-.15,.91-.45,1.22c-.32,.33-.72,.49-1.2,.49s-.88-.16-1.2-.49c-.3-.31-.47-.72-.47-1.22s.15-.9,.45-1.2c.31-.31,.71-.47,1.21-.47s.88,.16,1.2,.47"/><path class="cls-4" d="M192.76,197.09c.31,.31,.45,.72,.45,1.2s-.15,.91-.45,1.22c-.32,.33-.72,.49-1.2,.49s-.88-.16-1.2-.49c-.3-.31-.47-.72-.47-1.22s.15-.9,.45-1.2c.31-.31,.71-.47,1.21-.47s.88,.16,1.2,.47"/><path class="cls-4" d="M198.69,197.09c.31,.31,.45,.72,.45,1.2s-.15,.91-.45,1.22c-.32,.33-.72,.49-1.2,.49s-.88-.16-1.2-.49c-.3-.31-.47-.72-.47-1.22s.15-.9,.45-1.2c.31-.31,.71-.47,1.21-.47s.88,.16,1.2,.47"/><path class="cls-4" d="M204.61,197.09c.3,.31,.45,.72,.45,1.2s-.15,.91-.45,1.22c-.33,.33-.72,.49-1.2,.49s-.88-.16-1.19-.49c-.31-.31-.47-.72-.47-1.22s.15-.9,.45-1.2c.31-.31,.71-.47,1.2-.47s.88,.16,1.2,.47"/><path class="cls-4" d="M210.54,197.09c.3,.31,.45,.72,.45,1.2s-.15,.91-.45,1.22c-.33,.33-.72,.49-1.2,.49s-.88-.16-1.19-.49c-.31-.31-.47-.72-.47-1.22s.15-.9,.45-1.2c.31-.31,.71-.47,1.2-.47s.88,.16,1.2,.47"/><path class="cls-4" d="M216.47,197.09c.3,.31,.45,.72,.45,1.2s-.15,.91-.45,1.22c-.33,.33-.72,.49-1.2,.49s-.88-.16-1.19-.49c-.31-.31-.47-.72-.47-1.22s.15-.9,.45-1.2,.71-.47,1.2-.47,.88,.16,1.2,.47"/><path class="cls-4" d="M222.4,197.09c.3,.31,.45,.72,.45,1.2s-.15,.91-.45,1.22c-.33,.33-.72,.49-1.2,.49s-.88-.16-1.19-.49c-.31-.31-.47-.72-.47-1.22s.15-.9,.45-1.2c.31-.31,.71-.47,1.2-.47s.88,.16,1.2,.47"/><path class="cls-4" d="M228.33,197.09c.3,.31,.45,.72,.45,1.2s-.15,.91-.45,1.22c-.33,.33-.72,.49-1.21,.49s-.88-.16-1.19-.49c-.31-.31-.47-.72-.47-1.22s.14-.9,.46-1.2c.3-.31,.7-.47,1.2-.47s.88,.16,1.21,.47"/><path class="cls-4" d="M234.26,197.09c.3,.31,.45,.72,.45,1.2s-.15,.91-.45,1.22c-.32,.33-.72,.49-1.2,.49s-.89-.16-1.19-.49c-.31-.31-.47-.72-.47-1.22s.15-.9,.46-1.2c.31-.31,.71-.47,1.21-.47s.88,.16,1.2,.47"/><path class="cls-4" d="M240.2,197.09c.3,.31,.45,.72,.45,1.2s-.14,.91-.45,1.22c-.33,.33-.72,.49-1.21,.49s-.88-.16-1.19-.49c-.31-.31-.47-.72-.47-1.22s.15-.9,.46-1.2,.71-.47,1.21-.47,.88,.16,1.21,.47"/><path class="cls-4" d="M246.12,197.09c.31,.31,.46,.72,.46,1.2s-.15,.91-.46,1.22c-.32,.33-.72,.49-1.2,.49s-.88-.16-1.19-.49c-.31-.31-.47-.72-.47-1.22s.14-.9,.45-1.2,.71-.47,1.21-.47,.88,.16,1.2,.47"/><path class="cls-4" d="M252.06,197.09c.31,.31,.46,.72,.46,1.2s-.15,.91-.46,1.22c-.32,.33-.72,.49-1.2,.49s-.88-.16-1.19-.49c-.31-.31-.47-.72-.47-1.22s.15-.9,.45-1.2c.31-.31,.71-.47,1.21-.47s.88,.16,1.2,.47"/><path class="cls-4" d="M257.99,197.09c.31,.31,.45,.72,.45,1.2s-.14,.91-.45,1.22c-.32,.33-.72,.49-1.2,.49s-.88-.16-1.19-.49c-.31-.31-.47-.72-.47-1.22s.15-.9,.45-1.2c.31-.31,.71-.47,1.21-.47s.88,.16,1.2,.47"/><path class="cls-4" d="M263.91,197.09c.31,.31,.46,.72,.46,1.2s-.15,.91-.46,1.22c-.32,.33-.72,.49-1.2,.49s-.88-.16-1.19-.49c-.31-.31-.47-.72-.47-1.22s.15-.9,.46-1.2,.71-.47,1.21-.47,.88,.16,1.2,.47"/><path class="cls-4" d="M269.84,197.09c.31,.31,.46,.72,.46,1.2s-.15,.91-.46,1.22c-.32,.33-.72,.49-1.2,.49s-.88-.16-1.19-.49c-.3-.31-.47-.72-.47-1.22s.15-.9,.46-1.2c.31-.31,.71-.47,1.21-.47s.88,.16,1.2,.47"/><path class="cls-4" d="M275.77,197.09c.31,.31,.45,.72,.45,1.2s-.14,.91-.45,1.22c-.32,.33-.72,.49-1.21,.49s-.88-.16-1.19-.49c-.3-.31-.47-.72-.47-1.22s.14-.9,.45-1.2c.31-.31,.71-.47,1.21-.47s.88,.16,1.21,.47"/><path class="cls-4" d="M281.7,197.09c.31,.31,.46,.72,.46,1.2s-.15,.91-.46,1.22c-.32,.33-.72,.49-1.21,.49s-.88-.16-1.19-.49c-.3-.31-.47-.72-.47-1.22s.15-.9,.46-1.2c.31-.31,.71-.47,1.2-.47s.88,.16,1.21,.47"/><path class="cls-4" d="M287.63,197.09c.31,.31,.46,.72,.46,1.2s-.15,.91-.46,1.22c-.32,.33-.72,.49-1.2,.49s-.88-.16-1.19-.49c-.3-.31-.47-.72-.47-1.22s.15-.9,.46-1.2c.31-.31,.71-.47,1.21-.47s.88,.16,1.2,.47"/><path class="cls-4" d="M293.56,197.09c.31,.31,.46,.72,.46,1.2s-.14,.91-.46,1.22c-.32,.33-.72,.49-1.2,.49s-.88-.16-1.19-.49c-.3-.31-.47-.72-.47-1.22s.14-.9,.45-1.2c.31-.31,.71-.47,1.21-.47s.88,.16,1.2,.47"/><path class="cls-4" d="M299.5,197.09c.31,.31,.46,.72,.46,1.2s-.15,.91-.46,1.22c-.32,.33-.72,.49-1.21,.49s-.88-.16-1.19-.49c-.31-.31-.47-.72-.47-1.22s.15-.9,.46-1.2c.31-.31,.7-.47,1.2-.47s.88,.16,1.21,.47"/><path class="cls-4" d="M305.43,197.09c.31,.31,.46,.72,.46,1.2s-.15,.91-.46,1.22c-.32,.33-.72,.49-1.21,.49s-.88-.16-1.19-.49c-.31-.31-.47-.72-.47-1.22s.15-.9,.46-1.2c.31-.31,.71-.47,1.2-.47s.88,.16,1.21,.47"/><path class="cls-4" d="M311.36,197.09c.31,.31,.46,.72,.46,1.2s-.15,.91-.46,1.22c-.32,.33-.72,.49-1.2,.49s-.88-.16-1.19-.49c-.31-.31-.47-.72-.47-1.22s.15-.9,.46-1.2c.31-.31,.71-.47,1.21-.47s.88,.16,1.2,.47"/><path class="cls-4" d="M317.27,197.09c.31,.31,.46,.72,.46,1.2s-.15,.91-.46,1.22c-.32,.33-.72,.49-1.2,.49s-.88-.16-1.19-.49c-.31-.31-.47-.72-.47-1.22s.15-.9,.46-1.2c.31-.31,.71-.47,1.21-.47s.88,.16,1.2,.47"/><path class="cls-4" d="M323.21,197.09c.31,.31,.45,.72,.45,1.2s-.14,.91-.45,1.22c-.32,.33-.72,.49-1.2,.49s-.88-.16-1.19-.49c-.31-.31-.47-.72-.47-1.22s.15-.9,.46-1.2c.31-.31,.71-.47,1.21-.47s.88,.16,1.2,.47"/><path class="cls-4" d="M329.14,197.09c.31,.31,.45,.72,.45,1.2s-.14,.91-.45,1.22c-.32,.33-.72,.49-1.2,.49s-.88-.16-1.19-.49c-.31-.31-.47-.72-.47-1.22s.14-.9,.45-1.2c.31-.31,.71-.47,1.21-.47s.88,.16,1.2,.47"/><path class="cls-4" d="M335.07,197.09c.31,.31,.46,.72,.46,1.2s-.15,.91-.46,1.22c-.32,.33-.72,.49-1.2,.49s-.88-.16-1.19-.49c-.31-.31-.47-.72-.47-1.22s.15-.9,.46-1.2,.71-.47,1.21-.47,.88,.16,1.2,.47"/><path class="cls-4" d="M341,197.09c.31,.31,.46,.72,.46,1.2s-.15,.91-.46,1.22c-.32,.33-.72,.49-1.2,.49s-.88-.16-1.19-.49c-.31-.31-.47-.72-.47-1.22s.15-.9,.46-1.2c.31-.31,.71-.47,1.21-.47s.88,.16,1.2,.47"/><path class="cls-4" d="M346.93,197.09c.31,.31,.45,.72,.45,1.2s-.14,.91-.45,1.22c-.32,.33-.72,.49-1.2,.49s-.88-.16-1.19-.49c-.31-.31-.47-.72-.47-1.22s.14-.9,.45-1.2c.31-.31,.71-.47,1.21-.47s.88,.16,1.2,.47"/><path class="cls-4" d="M352.87,197.09c.31,.31,.46,.72,.46,1.2s-.15,.91-.46,1.22c-.32,.33-.72,.49-1.2,.49s-.88-.16-1.19-.49c-.31-.31-.47-.72-.47-1.22s.14-.9,.46-1.2c.31-.31,.71-.47,1.21-.47s.88,.16,1.2,.47"/><path class="cls-4" d="M358.8,197.09c.31,.31,.46,.72,.46,1.2s-.15,.91-.46,1.22c-.32,.33-.72,.49-1.2,.49s-.88-.16-1.19-.49c-.31-.31-.47-.72-.47-1.22s.15-.9,.46-1.2c.31-.31,.71-.47,1.21-.47s.88,.16,1.2,.47"/><path class="cls-4" d="M364.73,197.09c.31,.31,.45,.72,.45,1.2s-.14,.91-.45,1.22c-.32,.33-.72,.49-1.2,.49s-.88-.16-1.2-.49c-.3-.31-.47-.72-.47-1.22s.15-.9,.46-1.2c.31-.31,.71-.47,1.21-.47s.88,.16,1.2,.47"/><path class="cls-4" d="M370.66,197.09c.31,.31,.46,.72,.46,1.2s-.15,.91-.46,1.22c-.32,.33-.72,.49-1.2,.49s-.88-.16-1.2-.49c-.3-.31-.47-.72-.47-1.22s.14-.9,.45-1.2c.31-.31,.71-.47,1.21-.47s.88,.16,1.2,.47"/><path class="cls-4" d="M376.58,197.09c.31,.31,.45,.72,.45,1.2s-.14,.91-.45,1.22c-.32,.33-.72,.49-1.2,.49s-.88-.16-1.19-.49c-.31-.31-.47-.72-.47-1.22s.15-.9,.46-1.2,.71-.47,1.21-.47,.88,.16,1.2,.47"/><path class="cls-4" d="M382.51,197.09c.3,.31,.45,.72,.45,1.2s-.15,.91-.45,1.22c-.33,.33-.72,.49-1.21,.49s-.88-.16-1.19-.49c-.31-.31-.47-.72-.47-1.22s.14-.9,.45-1.2,.71-.47,1.21-.47,.88,.16,1.21,.47"/><path class="cls-4" d="M388.44,197.09c.3,.31,.45,.72,.45,1.2s-.15,.91-.45,1.22c-.33,.33-.72,.49-1.21,.49s-.88-.16-1.19-.49c-.31-.31-.47-.72-.47-1.22s.15-.9,.46-1.2,.71-.47,1.2-.47,.88,.16,1.21,.47"/><path class="cls-4" d="M394.37,197.09c.3,.31,.45,.72,.45,1.2s-.15,.91-.45,1.22c-.32,.33-.72,.49-1.2,.49s-.88-.16-1.19-.49c-.31-.31-.47-.72-.47-1.22s.15-.9,.46-1.2,.71-.47,1.21-.47,.88,.16,1.2,.47"/><path class="cls-4" d="M400.31,197.09c.3,.31,.45,.72,.45,1.2s-.14,.91-.45,1.22c-.33,.33-.72,.49-1.21,.49s-.88-.16-1.19-.49c-.31-.31-.47-.72-.47-1.22s.14-.9,.45-1.2,.71-.47,1.21-.47,.88,.16,1.21,.47"/><path class="cls-4" d="M406.24,197.09c.3,.31,.45,.72,.45,1.2s-.15,.91-.45,1.22c-.33,.33-.72,.49-1.21,.49s-.88-.16-1.19-.49c-.31-.31-.47-.72-.47-1.22s.15-.9,.46-1.2,.71-.47,1.2-.47,.88,.16,1.21,.47"/><path class="cls-4" d="M412.17,197.09c.3,.31,.45,.72,.45,1.2s-.15,.91-.45,1.22c-.32,.33-.72,.49-1.2,.49s-.88-.16-1.19-.49c-.31-.31-.47-.72-.47-1.22s.15-.9,.46-1.2,.71-.47,1.21-.47,.88,.16,1.2,.47"/></g><g><path class="cls-2" d="M178.54,127.54l-20.44-26.57c-7.84-1.23-15.48-2.21-22.91-2.97v43.07c6.4,.88,12.87,1.96,19.42,3.22v-18.31l16.95,21.99c3.42,.82,6.85,1.7,10.29,2.63,5.42,1.46,10.75,2.83,16.02,4.12v-45.51c-6.54-1.68-12.99-3.18-19.33-4.5v22.84Z"/><path class="cls-2" d="M250.98,126.62c0,3.01-.59,5.74-1.75,8.19-1.17,2.46-2.76,4.37-4.78,5.75-2.03,1.38-4.27,2.07-6.72,2.07s-4.74-.71-6.86-2.12c-2.12-1.41-3.8-3.33-5.06-5.75-1.26-2.42-1.89-5.14-1.89-8.15s.63-5.71,1.89-8.1c.17-.33,.36-.65,.55-.96-7.06-2.33-14.02-4.43-20.89-6.33-2.31,4.59-3.46,9.69-3.46,15.3,0,6.44,1.52,12.24,4.56,17.4,3.04,5.15,7.25,9.19,12.65,12.1,5.4,2.91,11.47,4.37,18.23,4.37s12.82-1.46,18.23-4.37c5.4-2.91,9.61-6.95,12.65-12.1,2.14-3.63,3.51-7.59,4.14-11.85-7-1.62-14.16-3.6-21.5-5.98,0,.18,.01,.35,.01,.53Z"/><path class="cls-2" d="M325.57,138c-15.12,.23-31.3-1.25-48.54-4.91v25.84h21.36v-16.75h8.01l7.73,16.75h22.99l.47-1.1-12-19.83Z"/><path class="cls-2" d="M59.71,139.04c0-4.54-1.14-8.21-3.41-11-2.27-2.79-4.92-4.83-7.96-6.12-3.04-1.29-6.86-2.58-11.46-3.86-3.68-.98-6.37-1.87-8.05-2.67-1.69-.8-2.53-1.93-2.53-3.4,0-1.9,1.32-2.86,3.96-2.86s6.2,.77,10.49,2.3c4.29,1.53,8.19,3.31,11.69,5.34l7.73-16.29c-1.56-.99-3.25-1.89-5.05-2.71-22.04,2.18-38.9,5.8-49.14,8.45-.99,2.37-1.49,4.96-1.49,7.79,0,4.42,1.1,7.95,3.31,10.58,2.21,2.64,4.83,4.59,7.87,5.85,3.04,1.26,6.83,2.47,11.37,3.63,3.74,.92,6.49,1.8,8.24,2.62,1.75,.83,2.62,1.98,2.62,3.45,0,1.23-.46,2.13-1.38,2.71-.08,.05-.18,.09-.27,.14,7.43-1.57,15.27-2.79,23.46-3.66,0-.1,0-.2,0-.3Z"/><path class="cls-2" d="M126.49,109.31c-3.04-5.09-7.26-9.08-12.66-11.96-.72-.38-1.45-.74-2.2-1.07-11.24-.5-21.85-.5-31.76-.15-.84,.37-1.68,.75-2.49,1.18-5.4,2.85-9.62,6.82-12.66,11.92-3.04,5.09-4.56,10.86-4.56,17.3,0,4.5,.76,8.67,2.24,12.54,7.6-.72,15.49-1.14,23.62-1.23-.78-.92-1.47-1.94-2.06-3.08-1.26-2.42-1.89-5.14-1.89-8.15s.63-5.71,1.89-8.1c1.26-2.39,2.94-4.28,5.06-5.66,2.12-1.38,4.4-2.07,6.86-2.07s4.69,.68,6.72,2.02c2.03,1.35,3.62,3.24,4.79,5.66,1.17,2.43,1.75,5.14,1.75,8.15s-.58,5.74-1.75,8.19c-.61,1.29-1.35,2.42-2.19,3.42,7.57,.38,15.3,1.03,23.17,1.96,1.78-4.18,2.68-8.73,2.68-13.67,0-6.38-1.52-12.12-4.56-17.21Z"/><path class="cls-2" d="M381.29,134.53h-13.44l.74-2.05c-7.04,1.74-14.38,3.12-22.04,4.07l-8.98,21.27,.67,1.1h20.78l3.31-9.11h24.21l3.22,9.11h22.73l-14.74-36.25c-5.8,2.5-11.89,4.77-18.25,6.76l1.79,5.1Z"/></g><polygon class="cls-6" points="337.11 158.93 338.24 158.93 337.57 157.82 337.11 158.93"/><g><path class="cls-4" d="M153.04,94.4h-17.85v3.6c7.43,.75,15.07,1.73,22.91,2.97l-5.05-6.57Z"/><path class="cls-4" d="M178.54,94.4v10.3c6.34,1.32,12.79,2.82,19.33,4.5v-14.8h-19.33Z"/><path class="cls-4" d="M268.33,109.31c-3.04-5.09-7.26-9.08-12.65-11.96-5.41-2.88-11.48-4.33-18.23-4.33s-12.83,1.43-18.23,4.28c-5.4,2.85-9.61,6.82-12.65,11.92-.39,.66-.76,1.33-1.1,2,6.86,1.9,13.83,4,20.89,6.33,1.18-1.94,2.69-3.51,4.51-4.7,2.12-1.38,4.4-2.07,6.86-2.07s4.69,.68,6.72,2.02c2.02,1.35,3.61,3.24,4.78,5.66,1.1,2.28,1.67,4.82,1.74,7.62,7.34,2.37,14.5,4.35,21.5,5.98,.27-1.79,.42-3.64,.42-5.54,0-6.38-1.52-12.12-4.56-17.21Z"/><path class="cls-4" d="M325.57,138l-.03-.06c3.32-2.02,5.84-4.77,7.6-8.24,1.74-3.47,2.62-7.53,2.62-12.2,0-7.36-2.39-13.05-7.18-17.07-4.79-4.02-11.57-6.03-20.34-6.03h-31.21v38.69c17.24,3.66,33.42,5.14,48.54,4.91Zm-11.96-14.09c-1.26,1.38-3.05,2.07-5.38,2.07h-9.85v-15.37h9.85c2.33,0,4.12,.66,5.38,1.98,1.26,1.32,1.89,3.18,1.89,5.57s-.63,4.37-1.89,5.75Z"/><path class="cls-4" d="M47.15,94.86c-5.01-1.41-10.02-2.12-15.05-2.12-5.53,0-10.37,.86-14.55,2.58-4.17,1.72-7.4,4.19-9.67,7.41-.77,1.1-1.4,2.26-1.91,3.48,10.25-2.65,27.11-6.28,49.14-8.45-2.44-1.12-5.09-2.09-7.97-2.9Z"/><path class="cls-4" d="M111.64,96.28c-4.84-2.17-10.18-3.25-16.03-3.25s-10.98,1.04-15.73,3.1c9.91-.34,20.52-.34,31.76,.15Z"/><path class="cls-4" d="M364.36,94.4l-17.8,42.16c7.66-.95,15.01-2.33,22.04-4.07l6.07-16.82,4.84,13.77c6.37-1.99,12.45-4.27,18.25-6.76l-11.49-28.27h-21.91Z"/></g><path class="cls-3" d="M32.92,143.73c1.37-.02,2.47-.26,3.33-.73-1.12,.24-2.23,.48-3.33,.73Z"/><g><path class="cls-4" d="M36.25,143c-.86,.46-1.96,.71-3.33,.73-.06,0-.11,0-.17,0-3.32,0-7.43-.99-12.33-2.99-4.91-1.99-8.99-4.4-12.24-7.23L.25,149.63c1.41,1.08,2.92,2.08,4.51,3.02,.32,.19,.66,.36,.98,.54,0,0-.02,0-.03,.01,.31,.17,.63,.33,.95,.49,.28,.15,.56,.3,.85,.45,.52,.26,1.06,.51,1.6,.76,.3,.14,.59,.28,.89,.41,.58,.25,1.18,.49,1.78,.73,.27,.11,.54,.22,.82,.33,.88,.33,1.77,.65,2.69,.94,0,0,0,0,0,0,5.8,1.87,11.55,2.81,17.26,2.81,5.03,0,9.6-.77,13.71-2.3,4.11-1.53,7.38-3.88,9.8-7.04,0,0,0,0,0-.01,.28-.36,.54-.74,.78-1.12,.08-.12,.15-.26,.23-.38,.16-.27,.32-.53,.47-.81,.08-.15,.16-.31,.23-.47,.13-.26,.25-.52,.37-.79,.07-.17,.14-.33,.2-.5,.11-.27,.21-.55,.3-.83,.06-.17,.11-.34,.16-.51,.09-.3,.17-.6,.25-.91,.04-.16,.08-.32,.12-.49,.08-.35,.14-.7,.2-1.06,.02-.13,.05-.26,.07-.39,.08-.52,.14-1.04,.18-1.58,0,0,0,0,0,0,.04-.52,.06-1.05,.07-1.6-8.19,.87-16.02,2.1-23.46,3.66Z"/><path class="cls-4" d="M135.19,141.07h0v17.86h19.42v-21.64c-6.46-.26-12.95-.42-19.42-.48v4.26Z"/><path class="cls-4" d="M180.01,158.93h17.86v-18.28c-11.1-1.32-22.58-2.29-34.21-2.93l16.35,21.21Z"/><path class="cls-4" d="M205.33,141.59c.38,.79,.79,1.57,1.24,2.33,3.04,5.15,7.25,9.19,12.65,12.1,5.4,2.91,11.47,4.37,18.23,4.37s12.82-1.46,18.23-4.37c2.71-1.46,5.12-3.21,7.23-5.23-10.79-1.27-22.24-3.05-34.41-5.42-7.42-1.45-15.17-2.71-23.16-3.78Z"/><path class="cls-4" d="M311.55,153.35l2.57,5.58h22.99l.46-1.1-3.55-5.87c-6.97,.73-14.45,1.22-22.48,1.39Z"/><path class="cls-4" d="M277.03,158.93h21.36v-5.59c-6.77-.14-13.89-.5-21.36-1.12v6.71Z"/><path class="cls-4" d="M105.99,137.21c-.45,.63-.94,1.22-1.47,1.75-.09,.09-.17,.17-.26,.25-.18,.17-.36,.34-.55,.5-.09,.07-.17,.15-.26,.22-.27,.22-.55,.43-.84,.63,0,0,0,0,0,0-.25,.17-.51,.33-.77,.49-1.3,.76-2.68,1.24-4.15,1.46-.59,.09-1.19,.13-1.8,.13-1.84,0-3.59-.4-5.24-1.19-.55-.26-1.09-.57-1.62-.93,0,0,0,0,0,0-.26-.17-.51-.35-.75-.54-.1-.08-.2-.16-.3-.24-.14-.11-.28-.23-.41-.34-.12-.1-.23-.21-.35-.32-.11-.1-.22-.2-.32-.31-.12-.12-.23-.23-.34-.35-.18-.19-.35-.37-.52-.57-8.13,.09-16.02,.5-23.62,1.23,.19,.49,.39,.97,.59,1.45,0,0,0,0,0,0,.02,.05,.05,.11,.08,.16,.21,.47,.43,.94,.66,1.4,.05,.09,.09,.19,.14,.28,.27,.53,.55,1.05,.85,1.56,.76,1.29,1.59,2.51,2.5,3.66,.91,1.15,1.89,2.23,2.94,3.24,2.11,2.02,4.51,3.76,7.21,5.21,1.35,.73,2.74,1.37,4.18,1.91,1.43,.55,2.91,1,4.43,1.37,3.04,.73,6.24,1.09,9.62,1.09h0c.84,0,1.68-.02,2.5-.07,5.76-.32,11-1.75,15.73-4.3,2.7-1.46,5.1-3.19,7.21-5.21,2.11-2.02,3.92-4.32,5.44-6.89,0,0,0-.01,.01-.02,.34-.58,.66-1.17,.97-1.77,.1-.2,.19-.41,.29-.61,.19-.39,.38-.78,.55-1.18,.02-.05,.05-.1,.07-.15,0,0,0,0,0,0,.47-1.11,.88-2.25,1.23-3.41-7.94,0-15.83,.14-23.6,.44Z"/><path class="cls-4" d="M401.53,131.95c-11.42,6.73-31.06,15.29-61.16,19.26l-2.79,6.61,.67,1.1h20.78l3.31-9.11h24.21l3.22,9.11h22.73l-10.97-26.98Z"/></g></svg>