<?xml version="1.0" encoding="UTF-8"?><svg id="Capa_1" xmlns="http://www.w3.org/2000/svg" viewBox="0 0 768.33 200"><defs><style>.cls-1{fill:#fff;}.cls-2{opacity:.3;}</style></defs><g class="cls-2"><g><polygon class="cls-1" points="714.51 178.95 703.75 178.95 703.75 189.47 692.99 189.47 692.99 200 703.76 200 703.76 189.48 714.52 189.48 714.52 178.95 725.27 178.95 725.27 168.42 714.51 168.42 714.51 178.95"/><polygon class="cls-1" points="746.79 147.36 736.04 147.36 736.04 157.88 725.27 157.88 725.27 168.42 736.04 168.42 736.04 157.9 746.8 157.9 746.8 147.37 757.57 147.37 757.57 136.85 746.79 136.85 746.79 147.36"/><rect class="cls-1" x="682.2" y="73.67" width="10.77" height="10.53"/><rect class="cls-1" x="671.44" y="84.22" width="10.77" height="10.52"/><polygon class="cls-1" points="639.16 126.32 649.91 126.32 649.91 115.8 660.68 115.8 660.68 105.27 649.91 105.27 649.91 115.79 639.16 115.79 639.16 126.31 628.39 126.31 628.39 136.84 639.16 136.84 639.16 126.32"/><rect class="cls-1" x="692.97" y="63.16" width="10.77" height="10.52"/><rect class="cls-1" x="714.51" y="105.27" width="10.77" height="10.53"/><polygon class="cls-1" points="736.04 94.74 746.8 94.74 746.8 84.22 736.04 84.22 736.04 94.73 725.27 94.73 725.27 105.26 736.04 105.26 736.04 94.74"/><rect class="cls-1" x="746.79" y="73.68" width="10.78" height="10.53"/><polygon class="cls-1" points="692.99 126.32 692.99 136.85 703.76 136.85 703.76 126.33 714.52 126.33 714.52 115.8 703.75 115.8 703.75 126.32 692.99 126.32"/><polygon class="cls-1" points="682.21 21.06 692.97 21.06 692.97 10.52 682.2 10.52 682.2 21.06 671.44 21.06 671.44 31.58 682.21 31.58 682.21 21.06"/><polygon class="cls-1" points="639.16 63.17 649.91 63.17 649.91 52.64 660.68 52.64 660.68 42.12 671.44 42.12 671.44 31.59 660.68 31.59 660.68 42.11 649.91 42.11 649.91 52.64 639.16 52.64 639.16 63.16 628.39 63.16 628.39 73.68 639.16 73.68 639.16 63.17"/><rect class="cls-1" x="692.97" y="0" width="10.77" height="10.54"/><polygon class="cls-1" points="682.21 189.5 692.97 189.5 692.97 178.96 682.21 178.96 682.21 168.43 671.44 168.43 671.44 178.96 682.21 178.96 682.21 189.5"/><polygon class="cls-1" points="660.68 168.43 671.43 168.43 671.43 157.9 660.68 157.9 660.68 147.37 649.92 147.37 649.92 157.91 660.68 157.91 660.68 168.43"/><rect class="cls-1" x="639.15" y="136.85" width="10.76" height="10.53"/><rect class="cls-1" x="703.75" y="73.67" width="10.77" height="10.53"/><rect class="cls-1" x="714.52" y="84.21" width="10.76" height="10.53"/><polygon class="cls-1" points="757.57 115.79 746.8 115.79 746.8 105.26 736.04 105.26 736.04 115.79 746.8 115.79 746.8 126.32 757.57 126.32 757.57 136.83 768.33 136.83 768.33 126.3 757.57 126.3 757.57 115.79"/><rect class="cls-1" x="682.21" y="115.8" width="10.76" height="10.53"/><rect class="cls-1" x="671.44" y="105.27" width="10.77" height="10.53"/><polygon class="cls-1" points="660.68 105.28 671.43 105.28 671.43 94.75 660.68 94.75 660.68 84.23 649.92 84.23 649.92 94.76 660.68 94.76 660.68 105.28"/><rect class="cls-1" x="639.15" y="73.7" width="10.76" height="10.53"/><polygon class="cls-1" points="714.52 31.58 725.27 31.58 725.27 21.05 714.52 21.05 714.52 10.51 703.75 10.51 703.75 21.05 714.52 21.05 714.52 31.58"/><polygon class="cls-1" points="736.04 52.64 746.8 52.64 746.8 63.16 757.57 63.16 757.57 73.68 768.33 73.68 768.33 63.15 757.57 63.15 757.57 52.63 746.8 52.63 746.8 42.1 736.04 42.1 736.04 31.58 725.28 31.58 725.28 42.11 736.04 42.11 736.04 52.64"/></g><g><polygon class="cls-1" points="86.12 178.95 75.36 178.95 75.36 189.47 64.59 189.47 64.59 200 75.37 200 75.37 189.48 86.13 189.48 86.13 178.95 96.88 178.95 96.88 168.42 86.12 168.42 86.12 178.95"/><polygon class="cls-1" points="118.4 147.36 107.65 147.36 107.65 157.88 96.88 157.88 96.88 168.42 107.65 168.42 107.65 157.9 118.41 157.9 118.41 147.37 129.18 147.37 129.18 136.85 118.4 136.85 118.4 147.36"/><rect class="cls-1" x="53.81" y="73.67" width="10.77" height="10.53"/><rect class="cls-1" x="43.05" y="84.22" width="10.77" height="10.52"/><polygon class="cls-1" points="10.77 136.84 10.77 126.32 21.52 126.32 21.52 115.8 32.29 115.8 32.29 105.27 21.52 105.27 21.52 115.78 10.77 115.78 10.77 126.31 0 126.31 0 136.84 10.77 136.84"/><rect class="cls-1" x="64.58" y="63.16" width="10.77" height="10.52"/><rect class="cls-1" x="86.12" y="105.27" width="10.77" height="10.53"/><polygon class="cls-1" points="107.65 94.74 118.41 94.74 118.41 84.22 107.65 84.22 107.65 94.73 96.88 94.73 96.88 105.26 107.65 105.26 107.65 94.74"/><rect class="cls-1" x="118.4" y="73.68" width="10.78" height="10.53"/><polygon class="cls-1" points="64.59 126.32 64.59 136.85 75.37 136.85 75.37 126.33 86.13 126.33 86.13 115.8 75.36 115.8 75.36 126.32 64.59 126.32"/><polygon class="cls-1" points="53.82 21.06 64.57 21.06 64.57 10.52 53.81 10.52 53.81 21.06 43.05 21.06 43.05 31.58 53.82 31.58 53.82 21.06"/><polygon class="cls-1" points="10.77 63.17 21.52 63.17 21.52 52.64 32.29 52.64 32.29 42.12 43.05 42.12 43.05 31.59 32.29 31.59 32.29 42.11 21.52 42.11 21.52 52.64 10.77 52.64 10.77 63.16 0 63.16 0 73.68 10.77 73.68 10.77 63.17"/><rect class="cls-1" x="64.58" y="0" width="10.77" height="10.54"/><polygon class="cls-1" points="53.82 189.5 64.57 189.5 64.57 178.96 53.82 178.96 53.82 168.43 43.05 168.43 43.05 178.96 53.82 178.96 53.82 189.5"/><polygon class="cls-1" points="32.29 168.43 43.04 168.43 43.04 157.9 32.29 157.9 32.29 147.37 21.53 147.37 21.53 157.91 32.29 157.91 32.29 168.43"/><rect class="cls-1" x="10.76" y="136.85" width="10.76" height="10.53"/><rect class="cls-1" x="75.36" y="73.67" width="10.77" height="10.53"/><rect class="cls-1" x="86.13" y="84.21" width="10.76" height="10.53"/><polygon class="cls-1" points="129.18 115.78 118.41 115.78 118.41 105.26 107.65 105.26 107.65 115.79 118.41 115.79 118.41 126.32 129.18 126.32 129.18 136.83 139.93 136.83 139.93 126.3 129.18 126.3 129.18 115.78"/><rect class="cls-1" x="53.82" y="115.8" width="10.76" height="10.53"/><rect class="cls-1" x="43.05" y="105.27" width="10.77" height="10.53"/><polygon class="cls-1" points="32.29 105.28 43.04 105.28 43.04 94.75 32.29 94.75 32.29 84.23 21.53 84.23 21.53 94.76 32.29 94.76 32.29 105.28"/><rect class="cls-1" x="10.76" y="73.7" width="10.76" height="10.53"/><polygon class="cls-1" points="86.13 31.58 96.88 31.58 96.88 21.05 86.13 21.05 86.13 10.51 75.36 10.51 75.36 21.05 86.13 21.05 86.13 31.58"/><polygon class="cls-1" points="107.65 52.64 118.41 52.64 118.41 63.16 129.18 63.16 129.18 73.68 139.93 73.68 139.93 63.15 129.18 63.15 129.18 52.63 118.41 52.63 118.41 42.1 107.65 42.1 107.65 31.58 96.89 31.58 96.89 42.11 107.65 42.11 107.65 52.64"/></g><g><rect class="cls-1" x="577.69" y="105.39" width="10.53" height="10.76"/><rect class="cls-1" x="567.16" y="116.16" width="10.53" height="10.76"/><rect class="cls-1" x="546.12" y="137.69" width="10.53" height="10.76"/><rect class="cls-1" x="556.63" y="126.91" width="10.53" height="10.77"/><polygon class="cls-1" points="535.59 159.21 546.13 159.21 546.13 148.46 535.59 148.46 535.59 159.2 525.06 159.2 525.06 169.97 535.59 169.97 535.59 159.21"/><polygon class="cls-1" points="535.58 51.55 546.1 51.55 546.1 62.32 556.62 62.32 556.62 73.1 567.15 73.1 567.15 83.85 577.68 83.85 577.68 73.1 567.15 73.1 567.15 62.32 556.63 62.32 556.63 51.55 546.12 51.55 546.12 40.8 535.58 40.8 535.58 30.03 525.06 30.03 525.06 40.81 535.58 40.81 535.58 51.55"/><polygon class="cls-1" points="588.21 105.37 598.74 105.37 598.74 94.61 588.22 94.61 588.22 83.84 577.69 83.84 577.69 94.61 588.21 94.61 588.21 105.37"/></g><g><polygon class="cls-1" points="181.58 116.15 192.1 116.15 192.1 105.38 181.59 105.38 181.59 94.63 171.05 94.63 171.05 105.4 181.58 105.4 181.58 116.15"/><polygon class="cls-1" points="202.64 137.68 213.16 137.68 213.16 148.44 223.68 148.44 223.68 159.21 234.2 159.21 234.2 169.97 244.73 169.97 244.73 159.2 234.2 159.2 234.2 148.44 223.7 148.44 223.7 137.67 213.17 137.67 213.17 126.91 202.64 126.91 202.64 116.15 192.11 116.15 192.11 126.91 202.64 126.91 202.64 137.68"/><rect class="cls-1" x="181.57" y="83.85" width="10.53" height="10.76"/><rect class="cls-1" x="192.1" y="73.08" width="10.53" height="10.77"/><polygon class="cls-1" points="213.17 62.32 223.69 62.32 223.69 51.57 213.15 51.57 213.15 62.32 202.64 62.32 202.64 73.08 213.17 73.08 213.17 62.32"/><polygon class="cls-1" points="234.2 40.79 244.73 40.79 244.73 30.03 234.2 30.03 234.2 40.79 223.67 40.79 223.67 51.54 234.2 51.54 234.2 40.79"/></g><g><rect class="cls-1" x="418.3" y="159.2" width="10.53" height="10.76"/><rect class="cls-1" x="470.93" y="105.38" width="10.53" height="10.76"/><rect class="cls-1" x="439.34" y="137.67" width="10.53" height="10.76"/><polygon class="cls-1" points="460.4 126.91 470.93 126.91 470.93 116.15 460.4 116.15 460.4 126.91 449.87 126.91 449.87 137.67 460.4 137.67 460.4 126.91"/><rect class="cls-1" x="428.82" y="148.45" width="10.53" height="10.76"/><rect class="cls-1" x="365.63" y="83.84" width="10.53" height="10.77"/><rect class="cls-1" x="376.16" y="73.08" width="10.53" height="10.76"/><rect class="cls-1" x="397.22" y="51.55" width="10.53" height="10.77"/><polygon class="cls-1" points="418.28 40.79 418.3 40.79 418.3 40.8 428.82 40.8 428.82 30.03 428.8 30.03 418.3 30.03 418.27 30.03 418.27 40.78 407.74 40.78 407.74 51.54 418.28 51.54 418.28 40.79"/><rect class="cls-1" x="407.77" y="105.38" width="10.53" height="10.76"/><polygon class="cls-1" points="376.18 137.67 376.18 148.43 386.72 148.43 386.72 137.68 397.24 137.68 397.24 137.67 397.24 126.91 407.77 126.91 407.77 116.15 397.24 116.15 397.24 126.91 386.71 126.91 386.71 137.67 386.71 137.67 376.18 137.67"/><rect class="cls-1" x="365.66" y="148.45" width="10.53" height="10.76"/><rect class="cls-1" x="302.48" y="83.84" width="10.53" height="10.77"/><polygon class="cls-1" points="323.54 73.08 334.07 73.08 334.07 62.32 344.59 62.32 344.59 51.55 334.06 51.55 334.06 62.32 323.54 62.32 323.54 73.08 313.01 73.08 313.01 83.83 323.54 83.83 323.54 73.08"/><polygon class="cls-1" points="355.12 40.79 355.14 40.79 355.14 40.8 365.66 40.8 365.66 30.03 365.64 30.03 355.14 30.03 355.11 30.03 355.11 40.78 344.58 40.78 344.58 51.54 355.12 51.54 355.12 40.79"/><rect class="cls-1" x="460.39" y="73.08" width="10.53" height="10.76"/><polygon class="cls-1" points="439.34 62.32 449.85 62.32 449.85 73.09 460.39 73.09 460.39 62.32 449.87 62.32 449.87 51.54 439.34 51.54 439.34 40.78 428.81 40.78 428.81 51.55 439.34 51.55 439.34 62.32"/><polygon class="cls-1" points="481.44 105.37 491.98 105.37 491.98 94.6 481.45 94.6 481.45 83.83 470.93 83.83 470.93 94.61 481.44 94.61 481.44 105.37"/><polygon class="cls-1" points="365.65 116.14 376.18 116.14 376.18 105.38 365.65 105.38 365.65 94.63 355.12 94.63 355.12 105.39 365.65 105.39 365.65 116.14"/><rect class="cls-1" x="376.18" y="116.14" width="10.52" height="10.78"/><polygon class="cls-1" points="407.75 159.2 418.29 159.2 418.29 169.97 428.81 169.97 428.81 159.2 418.29 159.2 418.29 148.44 407.76 148.44 407.76 137.68 397.24 137.68 397.24 148.44 407.75 148.44 407.75 159.2"/><rect class="cls-1" x="397.24" y="73.08" width="10.52" height="10.76"/><polygon class="cls-1" points="386.7 73.09 397.23 73.09 397.23 62.32 386.71 62.32 386.71 51.54 376.18 51.54 376.18 62.32 386.7 62.32 386.7 73.09"/><rect class="cls-1" x="365.65" y="40.78" width="10.53" height="10.78"/><polygon class="cls-1" points="418.3 105.37 428.82 105.37 428.82 94.6 418.3 94.6 418.3 83.83 407.76 83.83 407.76 94.61 418.3 94.61 418.3 105.37"/><polygon class="cls-1" points="302.49 116.14 313.01 116.14 313.01 126.91 323.54 126.91 323.54 116.14 313.02 116.14 313.02 105.38 302.51 105.38 302.51 94.63 291.97 94.63 291.97 105.39 302.49 105.39 302.49 116.14"/><polygon class="cls-1" points="334.07 137.68 334.07 148.44 344.6 148.44 344.6 159.2 355.12 159.2 355.12 169.97 365.65 169.97 365.65 159.2 355.14 159.2 355.14 148.44 344.6 148.44 344.6 137.68 334.07 137.68"/><rect class="cls-1" x="323.56" y="126.91" width="10.54" height="10.77"/></g></g></svg>